<svg aria-hidden="true" style="position:absolute;width:0;height:0" xmlns="http://www.w3.org/2000/svg" overflow="hidden"><defs><symbol id="icon-antenna" viewBox="0 0 30 32"><path fill="var(--color1, #212121)" d="M29.859 22.098l-8.443-8.505.937-4.616c.225.09.485.144.758.146h.033a2.16 2.16 0 10-2.029-1.42l-.005-.015-4.96.606L8.059.161a.53.53 0 00-.376-.16.536.536 0 00-.373.155L5.798 1.66a.535.535 0 000 .754l.814.825c-1.143 2.062-1.816 4.522-1.816 7.139 0 4.106 1.656 7.824 4.336 10.525l-.001-.001a.49.49 0 00.146.097 2.986 2.986 0 00-.052.546v6.188h-6.4a2.669 2.669 0 00-2.667 2.666v1.067c0 .295.239.534.534.534h24.534a.534.534 0 00.533-.534v-1.067a2.67 2.67 0 00-2.666-2.666h-6.4v-2.742a14.784 14.784 0 0010.166-1.502l-.077.039.818.823a.534.534 0 00.376.16.536.536 0 00.373-.155l1.512-1.504a.535.535 0 000-.754zM22.366 6.233a1.067 1.067 0 11.752 1.822h-.004a1.066 1.066 0 01-.747-1.822h-.002zM21.11 9.737l-.598 2.946-1.175-1.183 1.774-1.763zm-.606-.902l-1.92 1.909-1.486-1.493 3.406-.416zM23.09 28.8a1.6 1.6 0 011.6 1.6v.534H1.224V30.4a1.6 1.6 0 011.6-1.6h20.267zm-7.467-2.134v1.067h-5.334v-1.067h5.334zM10.29 25.6v-4.053c0-1.294 1.196-2.346 2.666-2.346s2.667 1.053 2.667 2.346V25.6H10.29zm6.4-1.696v-2.357c0-1.882-1.675-3.413-3.733-3.413h-.058c-1.353 0-2.54.707-3.213 1.771l-.009.016a13.817 13.817 0 01-3.812-9.55c0-2.314.567-4.496 1.569-6.414l-.036.077L26 22.743c-1.823.947-3.979 1.502-6.266 1.502-1.079 0-2.128-.124-3.136-.357l.093.018zm11.289-.684L6.922 2.039l.754-.752 7.935 7.98c.004 0 .006.007.01.01l13.115 13.191-.757.752z"/><path fill="var(--color2, #2196f3)" d="M12.961 20.267h-.007a1.6 1.6 0 00-.003 3.2h.007a1.6 1.6 0 00.002-3.2zm.373 1.978a.534.534 0 11-.378-.912.533.533 0 01.374.911h.005z"/></symbol><symbol id="icon-astronaut" viewBox="0 0 32 32"><path fill="var(--color2, #2196f3)" d="M31.974 4.524a.534.534 0 00-.43-.363l-1.91-.278-.855-1.731c-.179-.365-.777-.365-.956 0l-.855 1.731-1.91.278a.535.535 0 00-.296.91l1.383 1.348-.326 1.903c-.034.2.048.402.212.522a.53.53 0 00.562.04l1.709-.899 1.709.899a.536.536 0 00.775-.563l-.326-1.903 1.383-1.348a.536.536 0 00.135-.547zm-2.463 1.327a.534.534 0 00-.153.472l.191 1.114-1-.526a.533.533 0 00-.498 0l-1.001.526.191-1.114a.534.534 0 00-.153-.472l-.81-.789 1.119-.163a.532.532 0 00.402-.292l.5-1.013.5 1.013a.535.535 0 00.402.292l1.119.163-.809.789zM26.134 20.522h-1.067v1.067h1.067v-1.067zM26.134 22.656h-1.067v1.067h1.067v-1.067zM27.2 21.589h-1.067v1.067H27.2v-1.067zM25.067 21.589H24v1.067h1.067v-1.067zM22.4 26.389h-1.067v1.067H22.4v-1.067zM22.4 28.522h-1.067v1.067H22.4v-1.067zM23.467 27.456H22.4v1.067h1.067v-1.067zM21.333 27.456h-1.067v1.067h1.067v-1.067zM16 24.256h-1.067v1.067H16v-1.067zM16 26.389h-1.067v1.067H16v-1.067zM17.067 25.322H16v1.067h1.067v-1.067zM14.933 25.322h-1.067v1.067h1.067v-1.067zM5.867 6.122H4.8v1.067h1.067V6.122zM5.867 8.255H4.8v1.067h1.067V8.255z"/><path fill="var(--color2, #2196f3)" d="M6.933 7.189H5.866v1.067h1.067V7.189zM4.8 7.189H3.733v1.067H4.8V7.189z"/><path fill="var(--color1, #212121)" d="M24.715 14.159a1.775 1.775 0 00-1.188-.705 1.778 1.778 0 00-1.34.352l-1.252.96-1.898 1.417-1.358-.541c2.421-1.086 4.114-3.508 4.114-6.32 0-3.823-3.123-6.933-6.961-6.933s-6.961 3.11-6.961 6.933a6.86 6.86 0 001.12 3.758l-2.764-.024h-.005c-.009 0-.015.004-.023.005a.515.515 0 00-.155.031l-.038.013c-.006.003-.013.003-.019.006l-3.233 1.596-.001.001-1.893.911a.397.397 0 00-.063.035 1.779 1.779 0 00-.598 2.295c.22.429.595.745 1.056.889a1.776 1.776 0 001.378-.128l1.388-.738 2.264-1.169 1.357-.008L2.2 22.211l-.002.001-1.339 1.333c-.316.315-.49.732-.49 1.178s.174.863.49 1.179c.325.323.752.485 1.179.485s.854-.162 1.18-.485l1.314-1.309 1.741-1.3.901.897-1.762 1.754-.002.001-1.339 1.333c-.316.315-.49.732-.49 1.178s.174.863.49 1.179c.325.323.753.485 1.18.485s.855-.162 1.18-.485l3.482-3.467.001-.002 1.01-1-.004-.004c.006-.006.015-.009.022-.015l5.166-5.658 3.471.494a.52.52 0 00.262-.033c.018-.006.033-.015.05-.023.019-.01.039-.015.058-.027l3.213-2.133c.012-.008.018-.021.029-.029.013-.01.029-.014.041-.026l1.271-1.191c.662-.62.753-1.635.212-2.362zM2.13 17.77a.714.714 0 01-.558.052.717.717 0 01-.213-1.26l1.314-.632.449 1.312-.992.528zm3.498-1.828l-1.548.8-.439-1.283 2.027-1.001-.04 1.484zm15.099-6.62a5.79 5.79 0 01-.599 2.559l-4.181-1.899a1.863 1.863 0 00-.788-1.388l1.464-4.86c2.378.756 4.105 2.974 4.105 5.588zm-11.789 0c0-3.235 2.644-5.867 5.894-5.867.253 0 .5.021.745.052l-1.432 4.754c-.019-.001-.037-.006-.057-.006-1.033 0-1.873.837-1.873 1.867s.84 1.867 1.873 1.867c.694 0 1.294-.383 1.618-.945l3.862 1.755a5.894 5.894 0 01-4.737 2.39c-3.25 0-5.894-2.632-5.894-5.867zm5.956.8c0 .441-.362.8-.806.8s-.806-.359-.806-.8c0-.441.362-.8.806-.8s.806.359.806.8zM2.465 25.146a.608.608 0 01-.854.001.592.592 0 010-.844l.962-.958.851.848-.959.955zm3.214 3.734a.608.608 0 01-.855.001.592.592 0 010-.844l.963-.959.852.848-.96.955zm3.481-3.469l-.002.001-1.765 1.76-.852-.848 1.763-1.755.002-.001c.04-.04.065-.088.09-.135.007-.014.02-.026.026-.04.017-.041.019-.085.026-.129.003-.025.014-.047.014-.073 0-.036-.013-.07-.02-.106-.006-.032-.006-.065-.019-.095a.55.55 0 00-.091-.138c-.01-.012-.014-.027-.025-.038h-.001l-.001-.002-1.607-1.6c-.017-.017-.039-.024-.058-.038a.507.507 0 00-.087-.058.515.515 0 00-.093-.033.507.507 0 00-.103-.02.5.5 0 00-.095.005.53.53 0 00-.104.02.477.477 0 00-.094.045c-.02.011-.042.015-.061.029L4.23 23.486l-.901-.897 2.399-2.386 4.361 4.289-.928.919zm6.819-7.017c-.015-.002-.03.004-.045.003a.556.556 0 00-.3.075.492.492 0 00-.083.061c-.013.011-.028.017-.04.029l-4.698 5.146-4.328-4.257 2.833-2.818a.534.534 0 00-.379-.911v-.001l-2.219.013.028-1.607 3.104.027a6.947 6.947 0 004.981 2.101c.437 0 .864-.045 1.279-.123.04.032.079.065.13.085l2.41.96.331 1.644-3.003-.427zm4.041.178l-.313-1.558 1.446-1.08.947 1.257-2.08 1.381zm3.754-2.831l-.838.785-.931-1.236.831-.637a.735.735 0 01.543-.143.718.718 0 01.48.284.713.713 0 01-.085.947z"/><path fill="var(--color1, #212121)" d="M13.602 18.544l-2.143-2.133a.534.534 0 00-.753 0l-2.142 2.133a.537.537 0 000 .756l2.142 2.133a.536.536 0 00.753 0l2.143-2.133a.535.535 0 000-.756zm-2.519 1.759l-1.387-1.381 1.387-1.381 1.387 1.381-1.387 1.381zM17.164 5.071l-.258 1.036c.071.018 1.738.452 1.738 2.149h1.067c0-2.017-1.666-2.965-2.547-3.185zM19.711 9.322h-1.067v1.067h1.067V9.322z"/></symbol><symbol id="icon-Client-1" viewBox="0 0 32 32"><path d="M5.34 0l4.677 4.428h13.046v12.351l4.677 4.428V.001H5.34z"/><path d="M1.5 4.241v20.6h21.76v-8.188L10.155 4.247 1.5 4.242zm17.615 17.587H4.943V7.974h1.002V20.89h13.17v.938zM7.766 28.662l.523-1.078h.438l-.763 1.438v.837h-.397v-.837l-.764-1.438h.439l.523 1.078zm2.247.667h-.881l-.184.53h-.411l.859-2.275h.355l.861 2.275H10.2l-.186-.53zm-.77-.319h.659l-.33-.944-.33.944zm2.328.234c0-.105.029-.202.086-.289.057-.089.17-.193.339-.314-.088-.111-.151-.206-.186-.284s-.052-.154-.052-.227c0-.178.054-.319.162-.422s.254-.156.438-.156c.166 0 .301.049.406.147s.159.217.159.361a.5.5 0 01-.072.262.879.879 0 01-.236.238l-.155.113.439.519a.9.9 0 00.095-.417h.33c0 .28-.066.51-.197.689l.334.395h-.441l-.128-.152c-.162.122-.356.183-.581.183s-.405-.059-.541-.178a.599.599 0 01-.202-.467zm.753.343a.58.58 0 00.359-.128l-.497-.586-.048.034c-.125.095-.188.203-.188.325 0 .105.034.191.102.256s.158.098.272.098zm-.209-1.466c0 .087.054.197.161.33l.173-.119.048-.039a.28.28 0 00.097-.22c0-.059-.022-.11-.067-.152s-.102-.064-.17-.064c-.074 0-.133.025-.177.075s-.066.113-.066.189zm4.133.997a.827.827 0 01-.269.569c-.156.135-.364.203-.623.203a.902.902 0 01-.48-.128c-.137-.086-.244-.209-.319-.367s-.114-.342-.117-.552v-.212c0-.215.038-.404.114-.567a.86.86 0 01.821-.511c.251 0 .453.068.606.205s.242.329.267.578h-.394c-.019-.164-.067-.281-.144-.353s-.188-.109-.336-.109a.464.464 0 00-.397.189c-.092.125-.139.309-.141.552v.202c0 .246.044.433.131.563s.218.194.387.194c.155 0 .272-.035.35-.105s.128-.186.148-.348h.394zm2.17-.338c0 .223-.039.419-.116.588a.884.884 0 01-.331.388.905.905 0 01-.494.134.926.926 0 01-.494-.134.896.896 0 01-.334-.386 1.362 1.362 0 01-.119-.576v-.128c0-.222.039-.418.117-.588a.887.887 0 01.333-.389c.144-.091.308-.136.494-.136s.349.045.492.134c.144.088.255.217.333.384s.118.361.119.583v.127zm-.395-.118c0-.252-.048-.445-.144-.58a.468.468 0 00-.405-.202.467.467 0 00-.402.202c-.096.133-.145.322-.147.567v.131c0 .25.048.443.145.58s.233.205.406.205a.464.464 0 00.403-.2c.095-.133.142-.328.142-.584v-.119z"/></symbol><symbol id="icon-Client-2" viewBox="0 0 32 32"><path d="M13.947 1.806h.084c.156 0 .324.016.49.03.734.052 1.463.162 2.179.329V.403a12.974 12.974 0 00-2.249-.358 18.11 18.11 0 00-.909-.044h-.263a18.35 18.35 0 00-4.515.582 18.3 18.3 0 00-4.79 1.948v17.475a19.484 19.484 0 014.566-1.779 19.948 19.948 0 013.833-.588h.051c.216-.011.433-.017.655-.019v-1.79a21.155 21.155 0 00-4.982.662 23.81 23.81 0 00-1.731.513l-.623.211V3.591l.266-.128a17.409 17.409 0 016.471-1.651.523.523 0 01.056 0c.248-.013.497-.019.741-.019h.28c.129.003.258.006.388.014z"/><path d="M18.337 3.651a15.823 15.823 0 01-2.606-.211c-.277-.047-.55-.103-.814-.164v17.275a13.82 13.82 0 003.425.404 18.396 18.396 0 004.515-.581 18.362 18.362 0 004.792-1.948V1.263a19.58 19.58 0 01-4.564 1.781 19.388 19.388 0 01-4.747.609zm6.908.299l.623-.21v13.63l-.266.128a17.055 17.055 0 01-3.184 1.144c-1.331.344-2.7.522-4.074.527-.411 0-.819-.017-1.214-.052l-.427-.038V5.062l.497.033c.361.023.735.034 1.141.034a21.092 21.092 0 005.173-.663 26.802 26.802 0 001.731-.518zM5.184 25.977a.912.912 0 00-.693-.28 1.034 1.034 0 00-.4.075.91.91 0 00-.512.518 1.023 1.023 0 00-.072.387v2.335c-.006.165.026.328.092.479.055.12.135.226.233.313a.815.815 0 00.321.166c.114.032.231.048.349.049a.972.972 0 00.892-.61.951.951 0 00.075-.372v-.261h-.61v.208a.528.528 0 01-.036.208.359.359 0 01-.089.131.365.365 0 01-.128.067.425.425 0 01-.128.022.314.314 0 01-.286-.125.548.548 0 01-.081-.313v-2.177a.738.738 0 01.075-.349.31.31 0 01.299-.141.33.33 0 01.272.131c.068.09.104.2.101.313v.202h.604v-.238a1.093 1.093 0 00-.279-.737zM8.81 25.95a1.051 1.051 0 00-1.38 0 .961.961 0 00-.237.327 1.099 1.099 0 00-.089.452v2.239a1.08 1.08 0 00.089.459c.055.12.136.227.237.313a.94.94 0 00.322.197 1.028 1.028 0 00.728 0c.121-.044.233-.111.33-.197a.948.948 0 00.23-.313 1.08 1.08 0 00.089-.459v-2.239a1.08 1.08 0 00-.089-.452 1.015 1.015 0 00-.23-.327zm-.285 3.019a.405.405 0 01-.121.324.445.445 0 01-.574 0 .397.397 0 01-.121-.324V26.73a.405.405 0 01.121-.324.445.445 0 01.574 0 .397.397 0 01.121.324v2.239zM13.572 29.969V25.73h-.587l-.771 2.244h-.011l-.777-2.244h-.581v4.239h.606V27.39h.011l.593 1.823h.302l.598-1.823h.011v2.579h.606zM17.013 26.027a.84.84 0 00-.343-.232 1.363 1.363 0 00-.439-.066h-.9v4.239h.604v-1.656h.311c.188.009.376-.031.545-.116a.882.882 0 00.332-.324 1.02 1.02 0 00.139-.369c.024-.16.035-.321.033-.482a2.421 2.421 0 00-.059-.606.898.898 0 00-.223-.39zm-.312 1.292a.547.547 0 01-.056.221.346.346 0 01-.156.149.619.619 0 01-.285.053h-.275v-1.441h.311a.578.578 0 01.272.053.349.349 0 01.142.157.62.62 0 01.053.236v.282c0 .099.006.2 0 .291h-.006zM19.874 25.73h-.495l-.934 4.239h.604l.177-.911h.823l.177.911h.604l-.957-4.239zm-.557 2.751l.297-1.537h.011l.296 1.537h-.604zM23.777 28.284h-.011l-.912-2.554h-.581v4.239h.604V27.42h.012l.923 2.549h.568V25.73h-.604v2.554zM27.468 25.73l-.486 1.685h-.012l-.486-1.685h-.64l.83 2.447v1.792h.604v-1.792l.83-2.447h-.64zM3.5 31.166h.291v.817h.198v-.817h.29v-.167h-.778v.167zM5.947 30.998l-.381.984h.21l.081-.224h.392l.084.224h.215l-.391-.984h-.21zm-.031.595l.134-.365.134.365h-.268zM8.366 31.62h.227v.127a.382.382 0 01-.234.083.244.244 0 01-.209-.093.411.411 0 01-.073-.257c0-.219.095-.329.283-.329a.206.206 0 01.222.157l.195-.038c-.042-.192-.181-.289-.417-.289a.495.495 0 00-.344.127.494.494 0 00-.141.379.532.532 0 00.126.369.477.477 0 00.374.144.59.59 0 00.417-.157v-.388h-.427v.166zM10.837 30.998h-.199v.984h.69v-.167h-.49v-.817zM12.926 30.998h-.199v.984h.199v-.984zM14.969 31.656l-.403-.657h-.193v.984h.185v-.643l.395.643h.198v-.984h-.182v.657zM16.815 31.549h.49v-.167h-.49v-.216h.528v-.167h-.727v.984h.747v-.167h-.548v-.266zM21.292 31.387h-.388v-.388h-.198v.984h.198v-.43h.388v.43h.198v-.984h-.198v.388zM23.149 31.549h.492v-.167h-.492v-.216h.529v-.167h-.727v.984h.746v-.167h-.548v-.266zM25.668 31.549c.171-.027.258-.117.258-.274a.236.236 0 00-.096-.219.553.553 0 00-.288-.058h-.417v.984h.198v-.412h.039a.261.261 0 01.123.022.21.21 0 01.07.072l.215.313h.237l-.12-.192a.685.685 0 00-.218-.236zm-.199-.136h-.146v-.247h.156a.526.526 0 01.201.023c.014.013.026.029.033.046a.133.133 0 01-.005.111.128.128 0 01-.037.043.547.547 0 01-.201.023zM27.567 31.549h.49v-.167h-.49v-.216h.529v-.167h-.729v.984h.747v-.167h-.548v-.266z"/></symbol><symbol id="icon-Client-3" viewBox="0 0 32 32"><path d="M5.222 31.103a.088.088 0 01.059.025l.153.161c-.119.13-.266.234-.431.305a1.532 1.532 0 01-.611.109 1.496 1.496 0 01-.574-.102 1.25 1.25 0 01-.712-.733 1.618 1.618 0 01-.098-.571c-.003-.195.033-.39.105-.573.067-.166.168-.317.297-.445.131-.126.287-.224.459-.29.189-.07.389-.104.591-.102.188-.004.375.027.549.093.152.063.291.15.412.257l-.128.171a.122.122 0 01-.033.031.084.084 0 01-.052.013.123.123 0 01-.056-.018l-.069-.046-.096-.058a.978.978 0 00-.302-.103 1.238 1.238 0 00-.228-.018 1.12 1.12 0 00-.425.077.96.96 0 00-.333.215.997.997 0 00-.216.343c-.054.145-.08.298-.078.452-.002.156.024.312.078.46.047.126.119.242.212.341a.863.863 0 00.318.212c.125.049.259.074.394.073.078.001.156-.004.234-.015a.87.87 0 00.354-.122c.054-.034.104-.072.151-.113a.115.115 0 01.073-.029zM9.644 30.296c.002.194-.033.386-.103.567-.062.165-.161.315-.288.44s-.282.224-.452.289a1.711 1.711 0 01-1.164 0 1.281 1.281 0 01-.741-.735 1.61 1.61 0 010-1.136c.065-.166.164-.317.291-.447.128-.121.281-.216.45-.279.374-.139.79-.139 1.164 0 .17.066.324.165.452.29.126.127.224.276.289.44.071.183.106.376.103.571zm-.402 0a1.313 1.313 0 00-.073-.456.898.898 0 00-.528-.556 1.23 1.23 0 00-.846 0 .901.901 0 00-.531.556 1.465 1.465 0 000 .912.888.888 0 00.531.554c.273.097.573.097.846 0a.884.884 0 00.528-.554c.051-.147.076-.301.073-.456zM12.661 30.774l.04.102.044-.102c.015-.033.031-.068.05-.1l.978-1.694c.019-.029.036-.047.056-.053a.217.217 0 01.08-.009h.289v2.755h-.343v-2.026-.086a.753.753 0 010-.095l-.984 1.718c-.012.026-.033.047-.058.063s-.054.023-.084.023h-.056a.154.154 0 01-.141-.086l-1.013-1.729V31.668h-.331v-2.75h.289a.24.24 0 01.08.009c.024.011.043.03.054.053l.999 1.696c.02.031.036.064.05.098zM16.342 30.638v1.032h-.383v-2.752h.854a1.67 1.67 0 01.477.06.912.912 0 01.337.171.699.699 0 01.191.27.905.905 0 01.065.352.84.84 0 01-.071.352.744.744 0 01-.207.275.936.936 0 01-.339.182 1.498 1.498 0 01-.461.064l-.463-.007zm0-.296h.463a.992.992 0 00.297-.042.617.617 0 00.214-.119.477.477 0 00.13-.182.579.579 0 00.046-.232.522.522 0 00-.172-.412.766.766 0 00-.515-.148h-.463v1.134zM21.487 31.673h-.302a.133.133 0 01-.084-.026.164.164 0 01-.05-.064l-.26-.666h-1.307l-.27.666a.145.145 0 01-.048.062.132.132 0 01-.086.027h-.302l1.148-2.756h.398l1.164 2.756zm-1.895-1.023h1.08l-.456-1.122a1.828 1.828 0 01-.086-.259l-.044.144c-.013.044-.029.084-.042.117l-.452 1.12zM23.141 28.931a.16.16 0 01.057.049l1.675 2.077v-.097V28.918h.343v2.756h-.191a.173.173 0 01-.078-.016.2.2 0 01-.061-.051l-1.673-2.075a.753.753 0 010 .095v2.048h-.343v-2.756h.203a.163.163 0 01.069.013zM28.037 30.577v1.094h-.383v-1.094l-1.059-1.66h.343a.126.126 0 01.082.024.256.256 0 01.052.062l.662 1.071a1.256 1.256 0 01.117.245l.05-.119c.019-.043.04-.085.065-.126l.653-1.078a.274.274 0 01.05-.058.116.116 0 01.082-.027h.346l-1.06 1.667zM12.471 24.293c.167.02.335.036.505.051 2.583-1.101 4.768-2.902 6.282-5.18s2.29-4.929 2.231-7.624l-2.846-2.712c.579 2.869.308 5.836-.782 8.567s-2.956 5.12-5.389 6.898z"/><path d="M11.455 24.167l.077.015c2.6-1.772 4.583-4.247 5.691-7.104s1.292-5.965.526-8.922l-4.054-3.862c1.64 3.175 2.3 6.728 1.903 10.246s-1.833 6.857-4.143 9.628zM25.204 14.725c-.689 2.961-2.362 5.632-4.77 7.616a15.094 15.094 0 01-2.266 1.55c1.961-.549 3.764-1.52 5.269-2.838s2.672-2.947 3.412-4.763l-1.644-1.565z"/><path d="M24.559 14.289l-2.341-2.23c-.045 2.543-.803 5.028-2.197 7.197s-3.372 3.943-5.729 5.137h.011a14 14 0 001.572-.089c2.203-.857 4.148-2.219 5.664-3.967s2.553-3.825 3.021-6.047zM11.794 2.664L9.001 0C6.504.919 4.357 2.535 2.84 4.636S.508 9.225.5 11.775c.009 2.818 1.005 5.552 2.829 7.77s4.372 3.793 7.242 4.476c2.561-2.973 4.061-6.647 4.281-10.488s-.851-7.648-3.058-10.869zM31.012 13.878c-.01-3.343-1.409-6.546-3.89-8.91s-5.843-3.696-9.352-3.706a13.655 13.655 0 00-4.741.841l17.099 16.291c.585-1.44.885-2.971.884-4.515z"/></symbol><symbol id="icon-Client-4" viewBox="0 0 32 32"><path d="M4.922 12.559h-.001c-.898 0-1.626.709-1.626 1.585v.001c0 .875.728 1.585 1.626 1.585h.001c.898 0 1.626-.709 1.626-1.585v-.001c0-.875-.728-1.585-1.626-1.585zM16.923 12.053c-.003-1.215-.499-2.38-1.381-3.239s-2.077-1.343-3.324-1.346c-1.247.002-2.443.486-3.325 1.346s-1.379 2.025-1.381 3.241v6.702s9.411-1.021 9.412-6.701v-.001zM0 20.954c.002.846.348 1.656.962 2.254s1.445.935 2.313.938c.868-.003 1.699-.339 2.313-.937s.959-1.408.962-2.253v-4.663s-6.548.711-6.548 4.662zm3.274.836c-.17 0-.335-.049-.476-.141s-.251-.222-.316-.375a.817.817 0 01.186-.911.871.871 0 011.319.126.824.824 0 01-.106 1.057.88.88 0 01-.607.246v-.003zM9.958 21.271h-.67v.692h-.349V20.27h1.102v.283h-.754v.437h.67v.282zm1.677-.116c0 .166-.029.313-.089.438s-.143.222-.253.291a.698.698 0 01-.377.102c-.14 0-.266-.034-.375-.101s-.195-.164-.256-.289a1.006 1.006 0 01-.092-.433v-.084c0-.166.03-.313.09-.439s.146-.225.254-.292c.11-.068.236-.102.377-.102s.266.034.375.102c.11.067.195.165.254.292.06.126.091.273.091.438v.076zm-.354-.077c0-.178-.032-.313-.095-.405s-.154-.138-.272-.138c-.117 0-.207.046-.271.137s-.096.224-.097.4v.083c0 .173.032.307.095.402s.155.143.275.143a.31.31 0 00.27-.137c.063-.092.094-.226.095-.402v-.083zm1.485.441a.176.176 0 00-.07-.151.855.855 0 00-.251-.111 1.737 1.737 0 01-.287-.116c-.192-.104-.289-.244-.289-.42 0-.092.026-.173.077-.244s.126-.129.222-.169c.097-.041.205-.06.326-.06s.229.022.323.066a.508.508 0 01.22.185c.053.08.079.171.079.272h-.349c0-.077-.025-.138-.073-.18s-.117-.065-.206-.065c-.085 0-.151.018-.199.054s-.071.083-.071.142c0 .055.028.101.083.138a.985.985 0 00.245.105c.198.06.343.134.434.222s.136.198.136.33c0 .147-.055.262-.166.346s-.26.124-.447.124c-.13 0-.249-.023-.356-.071s-.189-.114-.245-.196a.504.504 0 01-.084-.289h.35c0 .187.111.28.335.28.083 0 .148-.017.194-.05s.07-.082.07-.142zm1.862-.966h-.518v1.411h-.349v-1.411h-.511v-.283h1.379v.283zm1.218.676h-.67v.453h.786v.28h-1.135v-1.693h1.133v.283h-.784v.404h.67v.273zm.948.114h-.278v.62h-.349V20.27h.629c.2 0 .354.045.463.134s.163.215.163.378a.517.517 0 01-.076.29.502.502 0 01-.227.183l.366.692v.016h-.374l-.317-.62zm-.278-.282h.282c.087 0 .155-.022.204-.066s.072-.107.072-.185a.253.253 0 00-.069-.188c-.045-.046-.114-.069-.208-.069h-.28v.508zm2.114.306v.596h-.349V20.27h.66c.127 0 .239.023.335.07.097.046.171.113.223.199s.078.182.078.292c0 .166-.057.297-.171.393s-.27.143-.471.143h-.306zm0-.283h.311c.092 0 .163-.022.211-.065.049-.043.073-.106.073-.186 0-.083-.025-.15-.073-.201s-.116-.077-.202-.079h-.32v.531zm2.207.145h-.67v.453h.786v.28h-1.135v-1.693h1.133v.283h-.783v.404h.67v.273zm1.618-.676h-.518v1.411h-.349v-1.411h-.511v-.283h1.379v.283zm1.219.676h-.67v.453h.786v.28h-1.135v-1.693h1.133v.283h-.783v.404h.67v.273zm.948.114h-.278v.62h-.349V20.27h.629c.2 0 .354.045.463.134s.163.215.163.378a.517.517 0 01-.076.29.502.502 0 01-.227.183l.366.692v.016h-.374l-.317-.62zm-.278-.282h.282c.087 0 .155-.022.204-.066s.072-.107.072-.185a.253.253 0 00-.069-.188c-.045-.046-.114-.069-.208-.069h-.28v.508zm2.05.458a.176.176 0 00-.07-.151.855.855 0 00-.251-.111 1.737 1.737 0 01-.287-.116c-.192-.104-.289-.244-.289-.42 0-.092.026-.173.077-.244s.126-.129.222-.169a.826.826 0 01.325-.06c.121 0 .229.022.323.066a.508.508 0 01.22.185c.053.08.079.171.079.272h-.349c0-.077-.025-.138-.073-.18s-.117-.065-.206-.065c-.085 0-.151.018-.199.054s-.071.083-.071.142c0 .055.028.101.083.138a.985.985 0 00.245.105c.198.06.343.134.434.222s.136.198.136.33c0 .147-.055.262-.166.346s-.26.124-.447.124c-.13 0-.249-.023-.356-.071s-.189-.114-.245-.196a.504.504 0 01-.084-.289h.35c0 .187.111.28.335.28.083 0 .148-.017.194-.05s.07-.082.07-.142z"/></symbol><symbol id="icon-Client-5" viewBox="0 0 32 32"><path d="M2.444 24.594c.125.155.192.35.189.55.006.13-.017.261-.067.381s-.127.228-.225.314a1.264 1.264 0 01-.849.254H0v-3.489h1.462c.289-.019.574.062.81.232a.79.79 0 01.283.653.81.81 0 01-.17.534.803.803 0 01-.445.273.846.846 0 01.504.298zm-1.75-.527h.625c.142.01.283-.03.397-.116a.41.41 0 00.133-.34.424.424 0 00-.132-.341.601.601 0 00-.409-.118H.694v.915zm1.084 1.338a.447.447 0 00.148-.354.446.446 0 00-.151-.359.64.64 0 00-.424-.126H.696v.959h.664a.651.651 0 00.419-.121zM5.432 26.094l-.813-1.363h-.306v1.363h-.699v-3.489h1.324c.334-.023.664.083.922.297a1.12 1.12 0 01.098 1.443 1.068 1.068 0 01-.631.354l.866 1.394h-.761zm-1.118-1.84h.572c.398 0 .596-.176.596-.528.004-.072-.006-.144-.032-.211s-.064-.129-.114-.181a.619.619 0 00-.45-.142h-.579l.006 1.062zM9.254 25.391H7.86l-.246.702H6.88l1.28-3.45h.793l1.274 3.45h-.734l-.241-.702zm-.186-.528l-.51-1.473-.51 1.473h1.018zM14.04 26.094h-.694l-1.557-2.372v2.372h-.693v-3.489h.693l1.557 2.386v-2.386h.694v3.489zM18.002 25.258a1.496 1.496 0 01-.628.615 2.03 2.03 0 01-.976.22h-1.236v-3.489h1.236c.338-.009.673.065.976.214.266.134.485.346.628.609a2.037 2.037 0 010 1.83zm-.795-.083a1.283 1.283 0 000-1.666 1.203 1.203 0 00-.869-.297h-.482v2.258h.482c.318.02.63-.086.869-.297zM9.689 3.2s8.961 3.397 8.77 8.312v8.314s-8.954-3.398-8.767-8.314L9.689 3.2zM26.443 17.879a12.229 12.229 0 015.694-2.106v-2.602a11.697 11.697 0 00-5.694 4.709z"/><path d="M25.426 18.663a12.186 12.186 0 016.71-6.038V5.126S19.374 9.964 19.645 16.964V28.8s.569-.216 1.463-.622c0-.378 0-.76.041-1.144a12.305 12.305 0 014.278-8.371z"/><path d="M24.213 23.06c.067-.821.217-1.633.446-2.423a11.46 11.46 0 00-2.702 7.15c.725-.35 1.568-.786 2.454-1.298a12.275 12.275 0 01-.198-3.427zM24.72 23.102a11.736 11.736 0 00.158 3.103c3.486-2.094 7.404-5.331 7.254-9.242v-.341a11.424 11.424 0 00-6.634 3.112 11.75 11.75 0 00-.778 3.368z"/></symbol><symbol id="icon-Client-6" viewBox="0 0 32 32"><path d="M16.064 15.409a1.171 1.171 0 01-.205-.739v-1.071c0-.328.068-.578.204-.748s.369-.255.7-.255c.311 0 .531.073.662.218a.944.944 0 01.196.641v.252h-.556v-.255a1.474 1.474 0 00-.016-.249.249.249 0 00-.079-.148.305.305 0 00-.201-.058.325.325 0 00-.212.061.286.286 0 00-.092.164 1.381 1.381 0 00-.022.265v1.3a.722.722 0 00.071.365c.028.039.066.069.111.088s.094.026.143.021a.278.278 0 00.197-.059.271.271 0 00.083-.158c.013-.086.019-.173.017-.261v-.264h.556v.241a1.05 1.05 0 01-.192.673c-.127.159-.345.238-.665.238s-.562-.085-.698-.262zM18.378 15.42c-.14-.167-.211-.41-.211-.731v-1.126c0-.318.07-.559.211-.722s.375-.245.704-.244c.327 0 .561.082.701.244.14.164.212.404.212.722v1.126c0 .318-.071.562-.214.73s-.375.252-.698.252c-.323 0-.563-.085-.704-.25zm.963-.271a.687.687 0 00.067-.333v-1.379a.65.65 0 00-.066-.327c-.028-.039-.068-.071-.114-.09s-.097-.026-.147-.019c-.05-.007-.101 0-.147.019s-.086.05-.114.09a.65.65 0 00-.067.327v1.386a.663.663 0 00.067.333.348.348 0 00.26.112c.05 0 .098-.01.143-.029s.085-.047.117-.083v-.007zM20.663 12.629h.598l.45 2.078.46-2.078h.582l.059 3h-.43l-.046-2.085-.444 2.085h-.345l-.46-2.092-.042 2.092h-.435l.054-3zM23.484 12.629h.932c.537 0 .806.284.806.852 0 .544-.283.815-.848.815h-.317v1.333h-.575l.004-3zm.796 1.282c.057.007.115.002.169-.014s.105-.044.147-.081a.522.522 0 00.083-.339 1.05 1.05 0 00-.027-.273.228.228 0 00-.115-.142.55.55 0 00-.257-.048h-.223v.897h.223zM26.051 12.629h.618l.634 3h-.536l-.125-.692h-.551l-.129.692h-.545l.634-3zm.528 1.96l-.215-1.259-.215 1.259h.43zM27.815 12.629h.403l.771 1.711v-1.711h.477v3h-.383l-.776-1.786v1.786h-.494l.001-3zM30.585 14.485l-.641-1.852h.54l.391 1.19.367-1.19h.528l-.633 1.852v1.144h-.552v-1.144zM16.952 16.94v.157h-.47v1.219h-.197v-1.219h-.472v-.157h1.138zM18.424 18.316h-.152a.068.068 0 01-.043-.013.075.075 0 01-.025-.031l-.136-.327h-.651l-.136.327a.098.098 0 01-.021.037.065.065 0 01-.043.013h-.152l.575-1.376h.2l.582 1.37zm-.953-.511h.543l-.23-.56a1.164 1.164 0 01-.043-.13l-.022.073-.021.058-.228.559zM19.416 18.181a.973.973 0 00.108 0 .793.793 0 00.252-.076v-.309h-.23c-.006.001-.011-.001-.017-.003s-.01-.005-.014-.009c-.004-.003-.007-.007-.009-.011s-.003-.009-.003-.014v-.106h.446v.527a.843.843 0 01-.386.141 1.576 1.576 0 01-.168.009.817.817 0 01-.29-.051.694.694 0 01-.23-.144.672.672 0 01-.202-.503.78.78 0 01.052-.287c.033-.082.084-.156.149-.218s.144-.11.23-.143a.874.874 0 01.308-.051c.054 0 .107.004.16.012a.725.725 0 01.252.09.793.793 0 01.1.072l-.055.085c-.004.008-.011.014-.019.019s-.017.007-.026.007a.076.076 0 01-.036-.011.73.73 0 01-.056-.033.641.641 0 00-.329-.079.621.621 0 00-.222.038.464.464 0 00-.276.28.695.695 0 000 .459.49.49 0 00.511.309zM21.25 18.159h.628v.157h-.821V16.94h.197l-.005 1.219zM22.532 18.316h-.197V16.94h.197v1.376zM23.264 16.947a.091.091 0 01.03.025l.841 1.037a.4.4 0 010-.049v-1.026h.171v1.381h-.099a.094.094 0 01-.043-.008.098.098 0 01-.031-.026l-.84-1.036v1.07h-.165v-1.376h.102c.011 0 .022.002.032.007zM25.755 16.94v.151h-.697v.454h.565v.146h-.565v.47h.697v.151h-.9V16.94h.9zM5.135 8.443l8.738 2.349v8.23l-8.738-2.347V8.444zm-.56-.701v9.333l9.857 2.65v-9.332L4.575 7.742z"/><path d="M9.858 24.057L0 21.405v-9.332l9.858 2.651v9.333z"/><path d="M4.739 8.338l8.623 2.319-3.667 3.473-8.625-2.321 3.669-3.471zm-.164-.596L0 12.073l9.858 2.651 4.574-4.331-9.857-2.651zM10.413 23.532l4.02-3.806-4.02-1.082v4.888z"/></symbol><symbol id="icon-clock" viewBox="0 0 32 32"><path fill="var(--color1, #212121)" d="M31.296 15.301C31.295 6.849 24.441-.002 15.988 0S.685 6.855.687 15.308c.002 6.788 4.422 12.543 10.541 14.545l.108.031a.667.667 0 00.529-.065.636.636 0 00.283-.357l3.865-12.25a1.913 1.913 0 10-.852-3.63l.011-.005-5.106-5.107a.638.638 0 00-.902.902l5.103 5.109a1.847 1.847 0 00-.191.826c0 .602.283 1.137.723 1.48l.004.003-3.682 11.673C3.843 25.782.117 17.709 2.797 10.431S13.551-.573 20.829 2.108c7.278 2.681 11.004 10.754 8.323 18.032-1.345 3.581-4.003 6.406-7.374 7.938l-.088.036-.398-1.874a.639.639 0 00-1.05-.343l.001-.001-3.837 3.426a.637.637 0 00.227 1.083l.005.001 4.899 1.563a.637.637 0 00.818-.744l.001.004-.391-1.839c5.528-2.374 9.329-7.772 9.329-14.057v-.034.002zm-15.304-.637a.638.638 0 010 1.276.638.638 0 010-1.276zm2.1 14.864l2.184-1.948.603 2.84-2.787-.892z"/><path fill="var(--color2, #2196f3)" d="M15.354 3.185V4.46a.638.638 0 001.276 0V3.185a.638.638 0 10-1.276 0zM3.876 14.664a.638.638 0 000 1.276h1.275a.638.638 0 000-1.276H3.876zm24.232 1.275a.638.638 0 000-1.276h-1.275a.638.638 0 000 1.276h1.275z"/></symbol><symbol id="icon-close" viewBox="0 0 32 32"><path d="M32 3.223L28.777 0 16 12.777 3.223 0 0 3.223 12.777 16 0 28.777 3.223 32 16 19.223 28.777 32 32 28.777 19.223 16 32 3.223z"/></symbol><symbol id="icon-diagram" viewBox="0 0 32 32"><path fill="var(--color2, #2196f3)" d="M14.926 14.965h1.066v4.798h-1.066v-4.798zm4.264 2.132h1.066v2.665H19.19v-2.665zm-8.529 1.599h1.066v1.066h-1.066v-1.066zm-3.198-.533h1.066v1.599H7.463v-1.599z"/><path fill="var(--color1, #212121)" d="M1.599 28.291h25.586a1.6 1.6 0 001.599-1.599V24.56a1.6 1.6 0 00-1.599-1.599h-.533V9.667l3.028-2.868a1.608 1.608 0 10-.742-.752l-.004-.01-2.281 2.162v-1.23a1.6 1.6 0 00-1.599-1.599H3.731a1.6 1.6 0 00-1.599 1.599v15.992h-.533A1.6 1.6 0 000 24.56v2.132a1.6 1.6 0 001.599 1.599zM30.384 4.837a.533.533 0 010 1.066.533.533 0 010-1.066zM3.198 6.969c0-.294.239-.533.533-.533h21.323c.294 0 .533.239.533.533v2.239l-1.066 1.013V8.036a.534.534 0 00-.534-.534H4.798a.534.534 0 00-.534.533v13.327c0 .294.239.533.534.533h19.189a.534.534 0 00.534-.533v-9.675l1.066-1.01V22.96H3.198V6.969zm4.798 6.93h-.005a1.6 1.6 0 101.112 2.748l1.853.93a.535.535 0 00.636-.122l3.939-4.432 3.872 2.902a.534.534 0 00.686-.039l3.365-3.188v8.131H5.331V8.568h18.123v2.661l-3.771 3.572-3.904-2.927a.534.534 0 00-.718.071v.001l-3.993 4.493-1.493-.746c.011-.064.017-.128.02-.193a1.6 1.6 0 00-1.599-1.599zm.533 1.599a.533.533 0 01-1.066 0 .533.533 0 011.066 0zm3.198 8.528h5.33v.533a.533.533 0 01-.533.533h-4.265a.533.533 0 01-.533-.533v-.533zm-10.66.534c0-.294.238-.533.533-.533h9.062v.533a1.6 1.6 0 001.599 1.599h4.265a1.6 1.6 0 001.599-1.599v-.533h9.062c.294 0 .533.239.533.533v2.132a.533.533 0 01-.533.533H1.601a.533.533 0 01-.533-.533V24.56z"/></symbol><symbol id="icon-envelope" viewBox="0 0 32 32"><path d="M28.775 4.093H2.976A2.981 2.981 0 00-.001 7.07v17.86a2.981 2.981 0 002.977 2.977h25.799a2.981 2.981 0 002.977-2.977V7.07a2.981 2.981 0 00-2.977-2.977zm0 1.985c.135 0 .264.028.381.077l-13.28 11.51-13.28-11.51a.974.974 0 01.381-.077h25.799zm0 19.844H2.976a.992.992 0 01-.992-.992V8.251l13.241 11.476c.173.151.401.243.651.243s.478-.092.652-.244l-.002.001L29.767 8.251V24.93a.992.992 0 01-.992.992z"/></symbol><symbol id="icon-facebook" viewBox="0 0 32 32"><path d="M20.328 5.312h2.923V.224A36.478 36.478 0 0019.144 0h-.157.008c-4.213 0-7.099 2.65-7.099 7.52V12H7.25v5.688h4.646V32h5.699V17.69h4.461l.709-5.69h-5.17V8.08c0-1.643.443-2.768 2.734-2.768z"/></symbol><symbol id="icon-instagram" viewBox="0 0 32 32"><path d="M31.968 9.408c-.074-1.701-.349-2.869-.742-3.882a7.839 7.839 0 00-1.85-2.837l-.001-.001A7.906 7.906 0 0026.597.861l-.054-.018C25.524.449 24.362.176 22.661.101 20.949.019 20.405 0 16.059 0c-4.344 0-4.888.019-6.595.094-1.699.074-2.869.349-3.88.742a7.847 7.847 0 00-2.839 1.85l-.001.001A7.9 7.9 0 00.919 5.465l-.018.054C.506 6.538.232 7.7.157 9.401c-.082 1.712-.101 2.256-.101 6.602 0 4.344.019 4.888.094 6.595.075 1.701.35 2.869.744 3.882a7.915 7.915 0 001.849 2.837l.001.001c.8.813 1.77 1.443 2.832 1.843 1.019.395 2.182.67 3.882.744 1.707.075 2.251.094 6.595.094 4.346 0 4.89-.019 6.595-.094 1.701-.074 2.869-.349 3.882-.742a8.237 8.237 0 004.664-4.628l.019-.055c.394-1.019.669-2.182.744-3.882.075-1.707.093-2.251.093-6.595s-.006-4.888-.08-6.595zm-2.88 13.066c-.07 1.563-.333 2.406-.55 2.97a5.341 5.341 0 01-3.004 3.024l-.036.012c-.56.219-1.411.482-2.968.55-1.688.075-2.194.094-6.464.094-4.269 0-4.782-.019-6.464-.094-1.563-.069-2.406-.331-2.97-.55a4.953 4.953 0 01-1.836-1.192l-.001-.001a4.978 4.978 0 01-1.184-1.803L3.6 25.45c-.218-.563-.48-1.413-.549-2.97-.075-1.688-.094-2.195-.094-6.464s.019-4.784.094-6.464c.069-1.563.331-2.406.549-2.97a4.897 4.897 0 011.198-1.837l.002-.002a4.972 4.972 0 011.806-1.182l.034-.011c.56-.219 1.411-.48 2.968-.55 1.688-.074 2.195-.093 6.464-.093 4.275 0 4.782.019 6.464.093 1.563.069 2.406.331 2.97.55a4.91 4.91 0 011.837 1.194c.531.52.938 1.144 1.195 1.84.218.56.48 1.411.549 2.968.075 1.688.094 2.194.094 6.464 0 4.269-.019 4.768-.094 6.458z"/><path d="M16.059 7.782a8.223 8.223 0 00-8.219 8.221 8.223 8.223 0 0016.442.008v-.009a8.223 8.223 0 00-8.221-8.221zm0 13.552a5.333 5.333 0 01.001-10.666h.001a5.334 5.334 0 110 10.668zM26.525 7.458a1.92 1.92 0 01-3.84 0 1.92 1.92 0 013.84 0z"/></symbol><symbol id="icon-linkedin" viewBox="0 0 32 32"><path d="M31.992 32H32V20.262c0-5.741-1.235-10.163-7.947-10.163-3.227 0-5.392 1.77-6.277 3.45h-.093v-2.914h-6.365v21.363h6.627V21.42c0-2.786.528-5.48 3.978-5.48 3.398 0 3.45 3.179 3.45 5.658V32h6.619zM.528 10.635h6.635V32H.528V10.635zM3.843 0A3.843 3.843 0 000 3.843c0 2.12 1.722 3.878 3.843 3.878 2.12 0 3.842-1.757 3.842-3.878S5.965.002 3.844 0z"/></symbol><symbol id="icon-smartphone" viewBox="0 0 32 32"><path d="M23 0H9C7.346 0 6 1.346 6 3v26c0 1.654 1.346 3 3 3h14c1.654 0 3-1.346 3-3V3c0-1.654-1.346-3-3-3zM9 2h14a1 1 0 011 1v21H8V3a1 1 0 011-1zm14 28H9a1 1 0 01-1-1v-3h16v3a1 1 0 01-1 1z"/><path d="M10.708 27.478a.889.889 0 01.001 1.319l-.001.001a1.048 1.048 0 01-1.417 0l.001.001a.889.889 0 01-.001-1.319l.001-.001a1.048 1.048 0 011.417 0l-.001-.001z"/></symbol><symbol id="icon-twitter" viewBox="0 0 32 32"><path d="M31.605 6.201a13.14 13.14 0 01-3.667 1.015l-.068.007a6.477 6.477 0 002.838-3.535l.013-.045a12.7 12.7 0 01-4.026 1.554l-.083.014a6.477 6.477 0 00-11.205 4.427v.004c0 .514.043 1.008.15 1.477-5.387-.262-10.153-2.844-13.355-6.776a6.457 6.457 0 00-.892 3.272v.001a6.494 6.494 0 002.877 5.386 6.365 6.365 0 01-2.957-.813l.032.017v.071a6.511 6.511 0 005.148 6.357l.043.008a6.296 6.296 0 01-1.648.213h-.054.003c-.414 0-.833-.024-1.227-.11.839 2.566 3.22 4.453 6.054 4.513a12.936 12.936 0 01-8.022 2.765h-.012.001-.061c-.524 0-1.042-.034-1.549-.098l.06.006c2.791 1.823 6.21 2.908 9.881 2.908h.062-.004c11.923 0 18.442-9.876 18.442-18.438 0-.284-.01-.563-.024-.837a13.027 13.027 0 003.218-3.313l.029-.046z"/></symbol></defs></svg>